# xmcd
#
# Track frame offsets:
#	150
#	23476
#	46215
#	71401
#	88435
#	104669
#	117722
#	135905
#	150730
#	182727
#	208544
#
# Disc length: 3032 seconds
#
# Revision: 1
# Processed by: cddbd v1.5.2PL0 Copyright (c) Steve Scherf et al.
# Submitted via: EasyCDDAExtractor 15.3.0.1
#
DISCID=960bd60b
DTITLE=Madonna - Rebel Heart Tour - CD 2
DYEAR=2017
DGENRE=Pop
TTITLE0=Living For Love
TTITLE1=La Isla Bonita
TTITLE2=Dress You Up, Into The Groove
TTITLE3=Rebel Heart
TTITLE4=Music
TTITLE5=Candy Shop
TTITLE6=Material Girl
TTITLE7=La Vie En Rose
TTITLE8=Unapologetic Bitch
TTITLE9=Holiday
TTITLE10=Like A Prayer (Bonus Track)
EXTD=
EXTT0=
EXTT1=
EXTT2=
EXTT3=
EXTT4=
EXTT5=
EXTT6=
EXTT7=
EXTT8=
EXTT9=
EXTT10=
PLAYORDER=
